<svg xmlns="http://www.w3.org/2000/svg" viewBox="0 0 512 512">
  <!-- Pozadí -->
  <rect width="512" height="512" fill="#F5F5DC" rx="100" ry="100" />
  
  <!-- Kruh uprostřed -->
  <circle cx="256" cy="256" r="200" fill="#8B7D6B" />
  
  <!-- Otevřená kniha -->
  <path d="M 176 236 L 176 336 C 176 336, 236 316, 256 316 C 276 316, 336 336, 336 336 L 336 236 C 336 236, 276 216, 256 216 C 236 216, 176 236, 176 236 Z" fill="#F5F5DC" />
  <path d="M 176 236 L 256 216 L 336 236 L 256 256 L 176 236 Z" fill="#D2B48C" />
  
  <!-- Textové linky na stránkách -->
  <line x1="196" y1="246" x2="246" y2="236" stroke="#8B7D6B" stroke-width="3" />
  <line x1="196" y1="266" x2="246" y2="256" stroke="#8B7D6B" stroke-width="3" />
  <line x1="196" y1="286" x2="246" y2="276" stroke="#8B7D6B" stroke-width="3" />
  <line x1="196" y1="306" x2="246" y2="296" stroke="#8B7D6B" stroke-width="3" />
  
  <line x1="266" y1="236" x2="316" y2="246" stroke="#8B7D6B" stroke-width="3" />
  <line x1="266" y1="256" x2="316" y2="266" stroke="#8B7D6B" stroke-width="3" />
  <line x1="266" y1="276" x2="316" y2="286" stroke="#8B7D6B" stroke-width="3" />
  <line x1="266" y1="296" x2="316" y2="306" stroke="#8B7D6B" stroke-width="3" />
  
  <!-- Pero  -->
  <path d="M 326 186 L 366 146 C 370 142, 376 142, 380 146 L 390 156 C 394 160, 394 166, 390 170 L 350 210 L 326 186 Z" fill="#D2B48C" />
  <path d="M 326 186 L 350 210 L 300 220 L 326 186 Z" fill="#8B7D6B" />
  
  <!-- Inkoustová kaňka -->
  <circle cx="380" cy="156" r="8" fill="#3E2723" />
  <path d="M 375 151 C 380 140, 390 155, 385 161" fill="none" stroke="#3E2723" stroke-width="2" />
</svg>